<svg width="660" height="871" viewBox="0 0 660 871" fill="none" xmlns="http://www.w3.org/2000/svg">
<path d="M592.433 316.547C594.238 317.229 595.317 325.135 595.795 327.448L641.217 545.431L652.856 601.191C655.002 611.233 658.889 627.919 659.99 637.756C657.801 640.687 648.069 648.506 644.699 651.361L615.848 675.882L557.775 725.505C545.782 735.709 533.866 747.023 520.387 755.161C513.757 759.164 507.042 763.137 500.454 767.195L430.947 809.526L368.778 847.422C360.996 852.265 353.168 857.036 345.295 861.731C339.626 865.145 335.401 867.949 329.377 870.77C316.259 861.85 297.06 850.925 283.125 842.484L186.411 783.502C167.907 772.253 148.711 760.905 130.499 749.263C126.342 746.609 112.864 734.6 108.43 730.819L66.9808 695.466L21.8933 657.011C15.6191 651.664 5.49335 643.649 0 638.259C0.168615 632.404 4.71918 612.47 6.15122 605.693L18.3121 547.21C22.3004 531.134 25.8981 510.616 29.3732 494.049L53.041 380.481L61.5601 339.753C62.7569 334.06 64.1367 325.378 65.7652 320.075C67.0542 318.886 66.4201 319.179 68.1238 318.819C74.6875 321.636 110.904 370.589 120.048 380.106C125.325 376.894 139.433 371.007 145.664 368.326C158.49 362.807 172.189 356.387 185.075 351.267C189.682 353.447 192.531 355.881 196.486 359.066C197.127 364.841 195.848 370.745 194.82 376.465L190.89 398.178C190.028 402.92 188.799 408.4 188.636 413.145C194.589 420.448 200.201 428.606 205.778 436.279L233.667 474.632L250.388 497.638C255.382 504.436 262.816 513.39 266.116 521.059C267.854 525.1 269.214 531.433 270.659 535.859C276.331 553.223 281.642 570.729 287.236 588.119C289.783 596.019 292.262 605.958 295.761 613.362C296.627 615.193 302.157 621.317 303.82 623.297L320.028 642.668C322.836 646.035 327.47 651.322 329.727 654.809L330.018 655.265C332.333 651.378 337.061 646.026 340.1 642.377L355.725 623.711C357.578 621.539 363.632 614.745 364.589 612.466C367.604 605.288 370.175 595.865 372.559 588.303L387.666 540.527C389.681 534.258 392.192 525.591 394.35 519.676C395.721 515.92 404.684 504.197 407.486 500.344L430.589 468.593L455.826 433.906C460.766 427.095 466.018 419.307 471.369 412.955C470.276 401.956 467.149 389.477 465.472 378.393C464.427 371.503 463.019 366.568 463.224 359.39C466.245 356.192 470.618 353.388 474.449 351.293C481.306 353.57 494.762 359.906 501.785 363.03C514.005 368.467 528.187 374.171 539.962 380.057C544.669 374.954 549.511 368.424 553.918 362.944L577.316 334.076C581.276 329.181 587.919 320.238 592.433 316.547Z" fill="#755540"/>
<path d="M329.166 0.116871C329.341 0.086678 330.079 -0.065427 330.402 0.0323774C383.117 16.0051 440.743 34.0824 492.864 50.4007C494.502 50.9137 520.199 83.8935 522.397 86.6721L558.117 131.773C561.334 135.873 572.917 149.194 574.189 153.406C575.17 159.787 576.971 168.359 577.457 174.628C577.965 181.112 585.559 216.357 581.378 219.359C579.983 218.65 556.107 189.01 551.631 184.655C532.265 202.805 509.482 218.735 490.009 236.822C487.795 238.879 481.203 264.135 479.932 268.585L463.893 324.788C462.204 330.697 460.583 336.704 458.705 342.556C458.117 344.391 457.703 345.727 455.783 346.275C452.954 345.749 450.407 343.574 448.082 341.96C427.999 328.041 408.46 312.61 388.24 298.967C370.34 303.514 351.373 310.771 333.075 315.285L330.286 316.122C310.808 310.531 291.379 304.768 272.004 298.831C262.62 304.132 208.392 346.335 204.07 346.379C202.763 346.393 202.279 345.601 201.834 344.499C198.521 336.289 196.576 326.919 194.144 318.392L179.28 266.251C177.177 258.872 173.332 243.768 170.378 237.477C169.391 235.377 154.396 223.544 151.384 220.936C137.421 208.846 121.61 196.965 108.061 184.53L92.4816 202.983C89.1123 206.99 85.4046 211.773 81.5425 215.198C80.1827 216.405 79.3917 216.479 77.6642 216.277C77.5724 216.074 77.4423 215.816 77.3817 215.592C76.3129 211.638 84.0913 160.82 85.5595 154.373C85.9499 152.646 86.6556 151.005 87.6416 149.534C89.8909 146.122 95.987 139.148 98.8772 135.419C110.338 120.782 121.88 106.21 133.504 91.7023L155.208 64.3053C158.391 60.2413 162.227 54.9662 165.749 51.159C166.165 50.7101 169.661 49.3569 170.356 49.1384C201.907 39.209 233.649 29.6293 265.196 19.7151L305.905 7.02052C312.708 4.90529 322.594 1.49658 329.166 0.116871Z" fill="#755540"/>
<path d="M329.533 389.475C333.988 390.846 343.942 404.485 347.416 408.695L372.827 439.324C375.8 436.832 382.845 432.616 386.33 430.456L411.287 415.19C415.407 412.667 428.993 403.765 432.53 402.068C434.079 402.36 435.312 402.987 435.841 404.577C435.423 407.039 433.678 408.523 432.116 410.541C429.424 414.001 426.8 417.511 424.24 421.07L385.261 474.062C382.118 478.326 375.195 487.416 372.735 491.457C370.657 494.867 368.014 510.746 366.97 516.013L354.449 576.441C353.322 581.921 350.448 598.731 348.842 602.397C346.755 607.16 334.117 623.94 330.522 627.576C326.637 626.667 313.824 606.921 311.114 602.563C309.753 599.879 309.425 596.896 308.863 593.96C302.882 562.734 295.87 531.709 289.919 500.474C289.562 498.597 288.453 493.834 287.554 492.332C282.904 484.569 274.198 473.29 269 466.295L234.288 418.979C231.453 415.115 228.365 411.482 225.507 407.646C224.373 406.124 224.157 405.659 224.446 403.835C225.624 402.674 225.66 402.606 227.213 402.175C228.777 402.724 239.372 409.723 241.973 411.261C257.173 420.25 272.272 430.196 287.374 439.23C289.845 435.483 301.532 421.711 304.813 417.944C311.581 410.176 322.24 395.217 329.533 389.475Z" fill="#755540"/>
</svg>
